<svg width="431" height="216" viewBox="0 0 431 216" xmlns="http://www.w3.org/2000/svg"><g fill="none" fill-rule="evenodd"><path d="M0 144h72V72L0 144z" fill="#DFE3E9"/><path d="M287 216h-72l72-72v72z" fill="#4E19BD"/><path d="M144 216H72l72-72v72z" fill="#919596"/><path d="M215 144h72V72l-72 72z" fill="#34313E"/><path d="M431 216h-72l72-72v72z" fill="#4E75F9"/><path d="M72 0v72h72L72 0z" fill="#34313E"/><path d="M287 72v72h72l-72-72z" fill="#4E75F9"/><path d="M144 72v72h72l-72-72z" fill="#4E19BD"/><path d="M216 216h-72v-72l72 72z" fill="#DFE3E9"/><path d="M72 216H0v-72l72 72z" fill="#34313E"/><path d="M72 144v72L0 144h72z" fill="#DFE3E9"/><path d="M144 144V72H72l72 72z" fill="#4E75F9"/></g></svg>