<?xml version="1.0" standalone="no"?> 
<!DOCTYPE svg PUBLIC "-//W3C//DTD SVG 1.1//EN" "http://www.w3.org/Graphics/SVG/1.1/DTD/svg11.dtd" >
<svg xmlns="http://www.w3.org/2000/svg">
<defs>
  <font id="bc-icons" horiz-adv-x="1000">
    <font-face font-family="bc-icons"
      units-per-em="1001" ascent="1001"
      descent="0" />
    <missing-glyph horiz-adv-x="0" />
    <glyph glyph-name="chevronleft"
      unicode="&#xEA01;"
      horiz-adv-x="563.0625" d=" M499.24875 -2.5024999999999L579.32875 77.5775L156.40625 501.75125L579.32875 923.4225L499.24875 1003.5025L-3.75375 501.7512500000001z" />
    <glyph glyph-name="chevronright"
      unicode="&#xEA02;"
      horiz-adv-x="563.0625" d=" M76.32625 -2.5024999999999L-3.75375 77.5775L420.42 501.75125L-3.75375 923.4225L76.32625 1003.5025L579.32875 501.7512500000001z" />
    <glyph glyph-name="arrowup"
      unicode="&#xEA03;"
      horiz-adv-x="1001" d=" M500.5 1001C225.225 1001 0 775.775 0 500.5S225.225 0 500.5 0S1001 225.225 1001 500.5S775.775 1001 500.5 1001zM500.5 35.0350000000001C243.5870937500001 35.0350000000001 35.035 243.58709375 35.035 500.5000000000001S243.58709375 965.965 500.5 965.965S965.965 757.4129062500001 965.965 500.5000000000001S757.41290625 35.0350000000001 500.5 35.0350000000001zM513.85709375 782.43790625C513.85709375 782.43790625 512.1991875 782.43790625 513.85709375 782.43790625C512.1991875 784.0958125 510.51 784.0958125 508.85209375 785.785C508.85209375 785.785 508.85209375 785.785 507.1941874999999 785.785C505.5362812499999 787.44290625 502.1891874999999 787.44290625 500.5312812499999 787.44290625C495.5262812499999 787.44290625 490.5212812499999 785.785 488.863375 782.43790625C488.863375 782.43790625 488.863375 782.43790625 488.863375 782.43790625L265.29628125 540.54C258.633375 533.8770937500001 258.633375 522.17790625 266.9541875 515.515C270.30128125 512.16790625 273.6170937499999 510.51 278.6220937499999 510.51S288.63209375 512.16790625 291.9791874999999 515.515L483.82709375 725.7249999999999V203.5470937499999C483.82709375 193.53709375 492.1791875 186.8741875 500.4999999999999 186.8741875S517.17290625 195.2262812499998 517.17290625 203.5470937499999V727.4141874999999L714.0258124999999 517.2041875C720.6887187499999 510.54128125 730.6987187499999 510.54128125 739.0508124999999 517.2041875C745.71371875 523.8670937499999 745.71371875 533.87709375 739.0508124999999 542.2291875L513.8258125 782.4691875z" />
    <glyph glyph-name="bullhorn"
      unicode="&#xEA04;"
      horiz-adv-x="1001" d=" M984.32709375 919.26209375C974.31709375 919.26209375 967.6541875 912.5991875 967.6541875 902.5891875V872.5591875L33.3770937499999 588.9320937499999V608.95209375C33.3770937499999 618.96209375 26.7141874999999 625.625 16.7041874999999 625.625S0.0312812499999 618.96209375 0.0312812499999 608.95209375V398.74209375C0.0312812499999 388.73209375 6.6941874999999 382.0691875 16.7041874999999 382.0691875S33.3770937499999 388.73209375 33.3770937499999 398.74209375V417.1041875L200.1999999999999 367.0541874999999V270.30128125C200.1999999999999 155.18628125 290.2899999999999 103.478375 373.7170937499999 103.478375C468.8120937499999 103.478375 530.5299999999999 166.88546875 533.8770937499999 265.2962812500001L967.6541875 133.508375V103.478375C967.6541875 93.468375 974.31709375 86.8054687499999 984.32709375 86.8054687499999S1001 93.468375 1001 103.478375V902.62046875C1001 910.9725625 994.33709375 919.293375 984.32709375 919.293375zM500.5 270.27C500.5 186.84290625 453.79709375 136.79290625 373.71709375 136.79290625C303.64709375 136.79290625 233.57709375 178.4908125 233.57709375 270.27V357.01290625L500.4999999999999 275.275V270.27zM33.37709375 452.1079062499999V553.8658125L967.6541875 837.49290625V166.82290625L33.37709375 452.1079062499998z" />
    <glyph glyph-name="comment"
      unicode="&#xEA05;"
      horiz-adv-x="1001" d=" M984.32709375 894.23709375H16.7041875C6.6941875 894.23709375 0.03128125 887.5741875 0.03128125 877.5641875V243.58709375C0.03128125 233.57709375 6.6941875 226.9141874999999 16.7041875 226.9141874999999H266.9541875V76.7641874999999C266.9541875 70.1012812499998 270.30128125 65.0962812499998 276.9641875 61.7491875C278.62209375 60.0912812499998 281.9691875 60.0912812499998 283.62709375 60.0912812499998C286.9741874999999 60.0912812499998 291.9791874999999 61.7491875 293.63709375 63.4383749999998L485.485 226.9454687499998H984.32709375C994.33709375 226.9454687499998 1001 233.6083749999999 1001 243.6183749999999V877.5954687499999C1001 885.9475624999999 994.33709375 894.2683749999999 984.32709375 894.2683749999999zM967.62290625 260.26H478.7908125C475.44371875 260.26 470.43871875 258.60209375 468.7808125 256.91290625L300.26871875 113.4258125V243.5558125C300.26871875 253.5658125000001 293.6058125 260.2287187500001 283.5958125 260.2287187500001H33.3458125V860.82871875H967.62290625V260.2287187500001zM226.88290625 694.0370937499999H605.605C615.615 694.0370937499999 622.27790625 700.6999999999999 622.27790625 710.71S615.615 727.3829062499999 605.605 727.3829062499999H226.88290625C216.87290625 727.3829062499999 210.21 720.72 210.21 710.71S218.56209375 694.0370937499999 226.88290625 694.0370937499999zM226.88290625 557.2129062500001H774.0858125C784.0958125 557.2129062500001 790.75871875 563.8758124999999 790.75871875 573.8858124999999S784.0958125 590.55871875 774.0858125 590.55871875H226.88290625C216.87290625 590.55871875 210.21 583.8958125 210.21 573.8858124999999S218.56209375 557.2129062500001 226.88290625 557.2129062500001zM226.88290625 427.08290625H774.0858125C784.0958125 427.08290625 790.75871875 433.7458125 790.75871875 443.7558125000001S784.0958125 460.42871875 774.0858125 460.42871875H226.88290625C216.87290625 460.42871875 210.21 453.7658125 210.21 443.7558125000001S218.56209375 427.08290625 226.88290625 427.08290625z" />
    <glyph glyph-name="doublestar"
      unicode="&#xEA06;"
      horiz-adv-x="1001" d=" M650.65 266.92290625C647.3029062500001 266.92290625 643.98709375 268.5808125000001 640.64 270.27L500.5 380.38L360.36 270.27C353.69709375 265.265 345.345 265.265 340.34 270.27C333.67709375 275.275 331.98790625 283.62709375 335.335 290.2900000000001L397.05290625 445.4450000000001L273.5858125 537.1929062500001C268.5808125 542.1979062500001 265.23371875 548.8608125000001 268.5808125 555.5550000000001C270.23871875 562.2179062499999 276.9329062499999 567.22290625 283.5958125 567.22290625H422.07790625L485.485 717.3729062499999C488.83209375 724.0358125 493.83709375 727.38290625 500.5 727.38290625C500.5 727.38290625 500.5 727.38290625 500.5 727.38290625C507.16290625 727.38290625 513.85709375 724.0358125 515.515 717.3729062499999L577.2329062499999 567.22290625H717.37290625C724.0358125 567.22290625 730.73 562.2179062499999 732.38790625 555.5550000000001S732.38790625 540.54 727.38290625 537.1929062500001L603.9158125 445.4450000000001L665.63371875 290.2900000000001C668.9808125 283.62709375 665.63371875 275.275 660.62871875 270.27C657.281625 268.61209375 653.9658125 266.92290625 650.61871875 266.92290625zM333.67709375 533.8770937500001L427.1141875 463.8070937499999C433.77709375 458.8020937499999 435.46628125 450.4499999999999 432.1191875 443.78709375L388.73209375 335.3349999999999L490.49 415.415C497.1529062499999 420.42 505.505 420.42 510.51 415.415L610.61 335.3349999999999L567.2229062499999 443.78709375C563.8758124999999 450.4499999999999 567.2229062499999 458.8020937499999 572.2279062499999 463.8070937499999L667.32290625 533.87709375H567.2229062499999C560.56 533.87709375 553.8658125 537.2241875 552.20790625 543.88709375L500.4999999999999 667.3541875L448.79209375 543.8870937500001C447.1341874999999 538.88209375 440.44 533.8770937500001 433.7770937499999 533.8770937500001H333.67709375zM500.5 0V0C495.495 0 490.49 1.65790625 487.14290625 6.66290625L418.7308125 90.09L323.6358125 40.0400000000001C318.6308125 38.38209375 313.6258125 36.6929062500001 310.27871875 40.0400000000001S301.9266250000001 45.0450000000001 300.26871875 50.0500000000001L266.891625 151.8079062500001L160.12871875 141.79790625C155.12371875 141.79790625 150.11871875 143.4558125000001 146.771625 146.8029062500001S141.766625 155.155 141.766625 160.1600000000001L151.776625 266.92290625L48.32953125 300.3000000000001C43.32453125 301.9579062500001 39.9774375 305.3050000000001 38.31953125 310.3100000000001S36.661625 320.3200000000001 38.31953125 323.6670937500001L88.36953125 418.76209375L4.9424375 487.1741875C1.59534375 490.52128125 -0.0625625 495.52628125 -0.0625625 500.5312812500001S1.59534375 510.5412812500001 6.60034375 513.888375L90.0274375 582.3004687499999L39.9774375 677.39546875C38.31953125 682.4004687500001 36.63034375 687.4054687500001 39.9774375 690.7525625000001S44.9824375 699.1046562500001 49.9874375 700.7625625000001L151.74534375 734.13965625L141.73534375 840.9025625C141.73534375 845.9075625 143.39325 850.9125625 146.74034375 854.25965625S155.0924375 859.26465625 160.0974375 859.26465625L266.86034375 849.25465625L298.54825 952.70175C300.20615625 957.70675 303.55325 961.05384375 308.55825 962.71175S318.56825 964.36965625 321.91534375 962.71175L417.01034375 912.66175L485.4224374999999 996.08884375C492.0853437499999 1004.4409375 505.4424374999999 1004.4409375 510.4474374999999 996.08884375L578.8595312499999 912.66175L673.95453125 962.71175C678.9595312499999 964.36965625 683.9645312499999 966.05884375 687.3116249999999 962.71175C692.3166249999999 961.05384375 695.6637187499999 957.70675 697.3216249999999 952.70175L734.0145312499999 849.25465625L840.7774374999999 859.26465625C845.7824374999999 859.26465625 850.7874374999999 857.60675 854.1345312499999 854.25965625S859.1395312499999 845.9075625 859.1395312499999 840.9025625L849.1295312499999 734.13965625L952.5766249999998 702.4517500000001C957.5816249999998 700.79384375 960.9287187499998 697.4467500000001 962.5866249999998 692.44175S964.24453125 682.43175 962.5866249999998 679.0846562500001L912.5366249999998 583.98965625L995.9637187499998 515.5775625000001C999.3108124999998 512.23046875 1002.6266249999998 507.2254687500001 1002.6266249999998 502.2204687500001S1000.9687187499998 492.2104687500001 995.9637187499998 488.863375L912.5366249999998 420.45128125L962.5866249999996 325.35628125C964.2445312499998 320.35128125 965.9337187499996 315.34628125 962.5866249999996 311.9991875000001S957.5816249999996 300.33128125 952.5766249999996 300.33128125L849.1295312499998 266.9541875L859.1395312499998 160.19128125C859.1395312499998 155.18628125 857.4816249999998 150.18128125 854.1345312499998 146.8341875S845.7824374999998 141.8291875 840.7774374999998 141.8291875L734.0145312499998 151.8391875L702.3266249999997 48.3920937500001C700.6687187499997 43.38709375 697.3216249999997 40.0400000000001 692.3166249999997 38.38209375S682.3066249999997 36.7241875 678.9595312499997 38.38209375L583.8645312499998 88.43209375L515.4524374999997 5.0050000000001C510.4474374999997 1.6579062500001 505.4424374999997 1e-13 500.4374374999997 1e-13zM422.07790625 126.78290625C427.08290625 126.78290625 432.08790625 125.125 435.435 120.12L500.5 41.69790625L565.5649999999999 120.12C570.5699999999999 126.78290625 578.9220937499999 128.47209375 585.5849999999999 123.46709375L675.675 76.7641875000001L705.7049999999999 173.5170937500001C707.36290625 180.1800000000001 715.7149999999999 185.1850000000001 722.37790625 185.1850000000001L822.4779062499999 176.8329062500001L812.4679062499999 276.9329062500001C812.4679062499999 285.2850000000001 815.8149999999999 291.9479062500001 824.1358125 293.6058125000001L920.88871875 323.6358125000002L874.1858125 413.7258125000001C870.8387187500001 420.3887187500001 872.52790625 428.7408125000001 877.53290625 433.7458125000001L955.955 498.8108125000002L877.53290625 563.8758125000002C870.87 568.8808125000002 869.1808125 577.2329062500002 874.1858125 583.8958125000001L920.88871875 673.9858125000002L824.1358125 704.0158125000003C817.4729062499999 705.6737187500003 812.4679062499999 714.0258125000003 812.4679062499999 720.6887187500001L822.4779062499999 820.7887187500003L722.37790625 812.4366250000003C714.0258125 812.4366250000003 707.36290625 815.7837187500002 705.7049999999999 824.1045312500003L675.675 920.8574375000002L585.5849999999999 874.1545312500002C578.9220937499999 870.8074375000002 570.5699999999999 872.4966250000002 565.5649999999999 877.5016250000002L500.4999999999999 957.5816250000001L435.435 879.1595312500002C430.43 872.4966250000002 422.07790625 870.8074375000002 415.4149999999999 875.8124375000002L325.325 922.5153437500002L295.2949999999999 825.7624375000003C293.6370937499999 819.0995312500002 285.2849999999999 814.0945312500003 278.6220937499999 814.0945312500003L178.52209375 822.4466250000003L186.8741875 722.3466250000001C186.8741875 713.9945312500001 183.52709375 707.3316250000001 175.2062812499999 705.6737187500003L78.453375 675.6437187500003L125.15628125 585.5537187500003C128.503375 578.8908125000003 126.8141875 570.5387187500003 121.8091875 565.5337187500002L43.3870937499999 500.4687187500003L121.8091875 435.4037187500004C128.47209375 430.3987187500004 130.16128125 422.0466250000004 125.15628125 415.3837187500003L78.453375 325.2937187500004L175.2062812499999 295.2637187500003C181.8691875 293.6058125000003 186.8741875 285.2537187500003 186.8741875 278.5908125000003L178.52209375 178.4908125000003L278.6220937499999 186.8429062500003C286.9741874999999 186.8429062500003 293.63709375 183.4958125000003 295.2949999999999 175.1750000000003L325.325 78.4220937500003L415.4149999999999 125.1250000000002C417.07290625 126.7829062500002 420.4199999999999 126.7829062500002 422.0779062499999 126.7829062500002z" />
    <glyph glyph-name="globe"
      unicode="&#xEA07;"
      horiz-adv-x="1001" d=" M500.5 1001C493.83709375 1001 485.485 1001 478.82209375 1001C205.205 989.33209375 0 779.12209375 0 510.51C0 228.57209375 223.56709375 0 498.8420937499999 0C775.7749999999999 0 1001 225.225 1001 502.1579062500001C1001 777.4329062500001 775.775 1001 500.5 1001zM967.62290625 500.5H725.725C727.38290625 568.9120937499999 720.72 635.635 702.3579062499999 700.7H922.57790625C950.95 640.64 967.62290625 573.91709375 967.62290625 502.1579062500001C967.62290625 502.1579062500001 967.62290625 500.5 967.62290625 500.5zM35.035 467.12290625H276.93290625C281.93790625 400.4 296.95290625 333.6458125000001 321.97790625 266.92290625H98.4108125C65.03371875 326.9829062500001 41.69790625 393.7058125000001 35.00371875 467.12290625zM308.65209375 467.12290625H692.3791875000001C685.71628125 400.4 670.70128125 333.6458125000001 643.98709375 266.92290625H357.0441875C330.36128125 333.6458125000001 315.34628125 400.4 308.65209375 467.12290625zM331.98790625 700.7H668.9808125C689.0008124999999 635.635 697.3529062499999 568.91209375 694.0058125 500.5H306.96290625C303.6158125000001 568.9120937499999 311.96790625 635.635 331.9879062500001 700.7zM724.0670937499999 467.12290625H965.965C960.96 395.395 939.28209375 326.98290625 904.24709375 266.92290625H679.0220937500001C704.04709375 333.6458125000001 719.06209375 400.4 724.06709375 467.12290625zM905.905 734.07709375H692.34790625C665.6650000000001 814.1570937500001 622.27790625 892.5791875 562.21790625 964.30709375C709.0208125000001 944.28709375 834.1458125000001 857.5441875 905.905 734.07709375zM513.85709375 967.62290625C580.5799999999999 894.2058125 627.3141875 815.815 657.3441875 734.0458125H343.6870937500001C373.71709375 815.78371875 422.1091875 894.2058125000001 487.1741875 967.62290625C492.1791875 967.62290625 495.52628125 967.62290625 500.5312812500001 967.62290625S510.5412812500001 967.62290625 513.888375 967.62290625zM440.44 964.30709375C380.38 892.5791875 336.99290625 815.815 310.31 734.0770937499999H90.09C160.16 859.2020937499999 286.94290625 945.945 440.44 964.30709375zM73.41709375 700.7H298.64209375C280.2800000000001 635.635 271.9591875000001 568.91209375 275.2750000000001 500.5H33.37709375C33.37709375 503.84709375 33.37709375 507.16290625 33.37709375 510.51C33.37709375 578.9220937499999 48.39209375 643.98709375 73.41709375 700.7zM120.12 233.57709375H335.335C362.01790625 166.8541875 398.74209375 101.7891874999999 445.445 36.7241875C311.96790625 53.3970937500001 195.195 126.8141875 120.1199999999999 233.57709375zM488.83209375 33.37709375C440.44 100.1 400.4000000000001 166.8541875 372.0591875 233.57709375H632.3191875C602.2891874999999 166.8541875 563.90709375 100.1 515.54628125 33.37709375C510.5412812499999 33.37709375 505.5362812499999 33.37709375 502.1891874999999 33.37709375C495.52628125 33.37709375 492.1791875 33.37709375 488.83209375 33.37709375zM557.21290625 36.69290625C602.25790625 101.75790625 638.9508125 166.82290625 667.32290625 233.5458124999999H884.1958125C809.1208124999999 126.7829062499999 690.6587187499999 53.3658124999998 557.21290625 36.69290625z" />
    <glyph glyph-name="news"
      unicode="&#xEA08;"
      horiz-adv-x="1001" d=" M984.32709375 900.9H16.7041875C6.6941875 900.9 0.03128125 894.23709375 0.03128125 884.22709375V116.8041874999999C0.03128125 106.7941874999999 6.6941875 100.1312812499999 16.7041875 100.1312812499999H984.32709375C994.33709375 100.1312812499999 1001 106.7941874999999 1001 116.8041874999999V884.22709375C1001 894.23709375 994.33709375 900.9 984.32709375 900.9zM967.62290625 133.47709375H33.3458125V867.5541874999999H967.62290625V133.47709375zM116.77290625 600.5999999999999H884.1958125000001C894.2058125000001 600.5999999999999 900.86871875 607.26290625 900.86871875 617.27290625V784.0958125C900.86871875 794.1058125 894.2058125000001 800.76871875 884.1958125000001 800.76871875H116.77290625C106.76290625 800.76871875 100.1 794.1058125 100.1 784.0958125V617.27290625C100.1 607.26290625 106.76290625 600.5999999999999 116.77290625 600.5999999999999zM133.47709375 767.42290625H867.5541874999999V633.9458125H133.47709375V767.42290625zM450.45 500.5H183.52709375C173.51709375 500.5 166.8541875 493.83709375 166.8541875 483.82709375S173.51709375 467.1541874999999 183.52709375 467.1541874999999H450.45C460.46 467.1541874999999 467.12290625 473.8170937499999 467.12290625 483.82709375S460.46 500.5 450.45 500.5zM450.45 385.385H150.15C140.14 385.385 133.47709375 378.72209375 133.47709375 368.71209375S140.14 352.0391874999999 150.15 352.0391874999999H450.45C460.46 352.0391874999999 467.12290625 358.70209375 467.12290625 368.71209375S460.46 385.385 450.45 385.385zM450.45 283.62709375H150.15C140.14 283.62709375 133.47709375 276.9641875 133.47709375 266.9541875S140.14 250.2812812499999 150.15 250.2812812499999H450.45C460.46 250.2812812499999 467.12290625 256.9441875 467.12290625 266.9541875S460.46 283.62709375 450.45 283.62709375zM850.85 500.5H550.5500000000001C540.5400000000001 500.5 533.87709375 493.83709375 533.87709375 483.82709375S540.5400000000001 467.1541874999999 550.5500000000001 467.1541874999999H850.8500000000001C860.8600000000001 467.1541874999999 867.5229062500001 473.8170937499999 867.5229062500001 483.82709375S860.8600000000001 500.5 850.8500000000001 500.5zM850.85 385.385H550.5500000000001C540.5400000000001 385.385 533.87709375 378.72209375 533.87709375 368.71209375S540.5400000000001 352.0391874999999 550.5500000000001 352.0391874999999H850.8500000000001C860.8600000000001 352.0391874999999 867.5229062500001 358.70209375 867.5229062500001 368.71209375S860.8600000000001 385.385 850.8500000000001 385.385zM784.12709375 283.62709375H550.5500000000001C540.5400000000001 283.62709375 533.87709375 276.9641875 533.87709375 266.9541875S540.5400000000001 250.2812812499999 550.5500000000001 250.2812812499999H784.12709375C794.13709375 250.2812812499999 800.8000000000001 256.9441875 800.8000000000001 266.9541875S794.13709375 283.62709375 784.12709375 283.62709375z" />
    <glyph glyph-name="cog"
      unicode="&#xEA09;"
      horiz-adv-x="1000.9999999999999" d=" M0 457.4590020000001L0 543.476934Q0 564.981417 14.662648 582.575994T50.828778 604.080477L146.621475 623.630007Q152.486334 643.179537 162.261099 664.6840199999999L109.477368 744.8370929999999Q95.792697 764.3866229999999 98.724626 786.868082T117.296179 824.9901659999999L175.944769 883.638756Q195.494299 903.188286 220.908688 903.188286Q240.458218 903.188286 256.097842 891.4585679999999L336.2509149999999 838.6748369999999Q357.7553979999999 848.4496019999999 377.3049279999999 854.3144609999999L396.8544579999999 950.107158Q400.764364 971.611641 418.3589409999999 986.2732879999998T457.4580009999999 1000.9359359999999L543.4759329999999 1000.9359359999999Q564.9804159999999 1000.9359359999999 582.5749929999998 986.2732879999998T604.0794759999998 950.107158L623.6290059999998 854.3144609999999Q643.1785359999998 848.4496019999999 664.6830189999998 838.6748369999999L744.8360919999998 891.4585679999999Q760.4757159999998 903.188286 780.0252459999998 903.188286Q805.4396349999998 903.188286 824.9891649999997 883.638756L883.6377549999997 824.9901659999999Q901.2323319999998 809.3505419999999 903.1872849999997 786.868082T891.4575669999998 744.8370929999999L838.6738359999998 664.6840199999999Q848.4486009999998 643.179537 854.3134599999998 623.630007L950.1061569999998 604.080477Q971.6106399999998 600.1705709999999 986.2722869999998 582.5759939999999T1000.9349349999998 543.4769339999999L1000.9349349999998 457.4590019999999Q1000.9349349999998 435.954519 986.2722869999998 418.3599419999998T950.1061569999998 396.8554589999999L854.3134599999998 377.3059289999999Q848.4486009999998 357.756399 838.6738359999998 336.251916L891.4575669999998 256.0988429999999Q905.1422379999998 236.549313 903.1872849999997 214.0678539999999T883.6377549999997 175.9457699999998L824.9891649999997 117.2971799999998Q805.4396349999998 97.7476499999998 780.0252459999998 97.7476499999998Q760.4757159999998 97.7476499999998 744.8360919999998 109.4773679999998L664.6830189999998 162.2610989999998Q643.1785359999999 152.4863339999998 623.6290059999998 146.6214749999998L604.0794759999998 50.8287779999998Q600.1695699999999 29.3242949999999 582.5749929999998 14.6626479999998T543.4759329999999 -2e-13L457.4580009999999 -2e-13Q435.9535179999999 -2e-13 418.3589409999999 13.6846709999999T396.8544579999999 50.8287779999998L377.304928 146.6214749999998Q357.755398 152.4863339999998 336.250915 162.2610989999998L256.097842 109.4773679999998Q240.458218 97.7476499999998 220.908688 97.7476499999998Q195.494299 97.7476499999998 175.944769 117.2971799999998L117.2961790000001 175.9457699999998Q101.6565550000001 191.5853939999998 98.7246260000001 214.0678539999999T109.4773680000001 256.0988429999999L162.2610990000001 336.251916Q152.4863340000001 357.7563989999999 146.6214750000001 377.3059289999999L50.8287780000001 396.8554589999999Q29.3242950000001 400.7653649999999 14.6626480000001 418.3599419999998T1e-13 457.4590019999998zM62.558496 457.4590020000001L158.351193 437.9094720000001Q193.540347 432.0446130000001 205.270065 398.8104120000002Q211.134924 381.2158350000001 218.954736 363.6212580000002Q234.59436 332.3420100000001 215.04483 303.0177150000001L160.306146 220.9096890000002L220.909689 160.3061460000001L303.017715 215.0448300000002Q318.657339 224.8195950000002 336.251916 224.8195950000002Q351.89154 224.8195950000002 363.621258 218.954736Q381.2158349999999 211.1349240000001 398.810412 205.2700650000001Q432.044613 193.5403470000001 437.909472 158.3511930000001L457.4590019999999 62.5584960000001L543.4769339999999 62.5584960000001L563.0264639999999 158.3511930000001Q568.8913229999999 193.5403470000001 602.1255239999998 205.2700650000001Q619.7201009999998 211.1349240000001 637.3146779999998 218.954736Q649.0443959999998 224.8195950000002 664.6840199999998 224.8195950000002Q682.2785969999998 224.8195950000002 697.9182209999998 215.0448300000002L780.0262469999998 160.3061460000001L840.6297899999997 220.9096890000002L785.8911059999998 303.0177150000001Q766.3415759999998 332.3420100000001 781.9811999999998 363.6212580000002Q789.8010119999999 381.2158350000001 795.6658709999999 398.8104120000002Q807.3955889999999 432.0446130000002 842.5847429999999 437.9094720000001L938.3774399999998 457.4590020000001L938.3774399999998 543.476934L842.5847429999999 563.026464Q807.3955889999999 568.8913229999999 795.6658709999999 602.125524Q789.8010119999999 619.720101 781.9811999999998 637.314678Q766.3415759999998 668.593926 785.8911059999998 697.9182209999999L840.6297899999997 780.026247L780.0262469999998 840.62979L697.9182209999998 785.891106Q682.2785969999998 776.1163409999999 664.6840199999998 776.1163409999999Q649.0443959999998 776.1163409999999 637.3146779999998 781.9812Q619.7201009999998 789.801012 602.1255239999998 795.6658709999999Q568.8913229999998 807.395589 563.0264639999999 842.5847429999999L543.4769339999999 938.37744L457.4590019999999 938.37744L437.909472 842.5847429999999Q432.044613 807.395589 398.810412 795.6658709999999Q381.2158349999999 789.8010119999999 363.621258 781.9812Q351.8915399999999 776.1163409999999 336.251916 776.1163409999999Q318.657339 776.1163409999999 303.017715 785.8911059999999L220.9096889999999 840.62979L160.3061459999999 780.026247L215.0448299999999 697.9182209999999Q234.59436 668.593926 218.954736 637.314678Q211.1349239999999 619.720101 205.270065 602.125524Q193.540347 568.8913229999999 158.351193 563.026464L62.558496 543.476934L62.558496 457.4590020000001zM281.513232 500.467968Q281.513232 590.395806 346.026681 654.909255T500.4679679999999 719.4227040000001T654.9092549999999 654.909255T719.4227039999998 500.467968T654.9092549999999 346.0266810000001T500.4679679999999 281.513232T346.0266809999999 346.0266810000001T281.5132319999999 500.467968zM308.8825739999999 500.467968Q308.8825739999999 420.3148950000001 364.5982339999999 364.599235T500.4669669999999 308.8835750000001T636.3356999999999 364.599235T692.0513599999998 500.467968T636.3356999999999 636.336701T500.4669669999999 692.0523609999999T364.5982339999999 636.336701T308.8825739999999 500.467968zM375.3509759999999 500.467968Q375.3509759999999 553.251699 411.5171059999999 589.41883T500.4679679999999 625.5849599999999T589.4188299999998 588.4408530000001T625.5849599999999 499.489991T589.4188299999998 411.517106T500.4679679999999 375.3509760000001T411.517106 411.517106T375.350976 500.467968zM406.6302239999999 500.467968Q406.6302239999999 461.3689079999999 433.9995659999999 433.999566T500.4679679999999 406.630224T566.9363699999998 433.999566T594.3057119999999 500.467968T566.9363699999998 566.9363699999999T500.4679679999999 594.3057119999999T433.9995659999999 566.9363699999999T406.6302239999999 500.467968z" />
    <glyph glyph-name="quote"
      unicode="&#xEA0A;"
      horiz-adv-x="1001" d=" M497.1633333333334 1001C220.22 1001 -3.3366666666667 777.4433333333334 -3.3366666666667 500.5S220.22 0 497.1633333333334 0S997.6633333333332 223.5566666666666 997.6633333333332 500.5S774.1066666666667 1001 497.1633333333334 1001zM458.7916666666667 592.2583333333333C410.4100000000001 580.5799999999999 383.7166666666667 548.8816666666667 387.0533333333334 503.8366666666666C420.42 495.495 452.1183333333333 467.1333333333333 452.1183333333333 427.0933333333334V425.425C452.1183333333333 382.0483333333333 420.42 348.6816666666666 373.7066666666667 348.6816666666666C320.32 348.6816666666666 290.29 388.7216666666666 290.29 453.7866666666666V457.1233333333333C290.29 525.525 310.31 577.2433333333333 345.345 610.6099999999999C373.7066666666667 638.9716666666666 415.415 655.655 450.45 655.655C475.475 655.655 485.485 640.64 485.485 623.9566666666667S475.475 595.595 458.7916666666667 592.2583333333333zM697.3633333333333 592.2583333333333C648.9816666666667 580.5799999999999 622.2883333333333 548.8816666666667 625.625 503.8366666666666C658.9916666666667 495.495 690.6899999999999 467.1333333333333 690.6899999999999 427.0933333333334V425.425C690.6899999999999 382.0483333333333 658.9916666666667 348.6816666666666 612.2783333333333 348.6816666666666C558.8916666666665 348.6816666666666 528.8616666666666 388.7216666666666 528.8616666666666 453.7866666666666V457.1233333333333C528.8616666666666 525.525 548.8816666666667 577.2433333333333 583.9166666666665 610.6099999999999C612.2783333333333 638.9716666666666 653.9866666666666 655.655 689.0216666666665 655.655C714.0466666666665 655.655 724.0566666666665 640.64 724.0566666666665 623.9566666666667S714.0466666666666 595.595 697.3633333333333 592.2583333333333z" />
    <glyph glyph-name="play"
      unicode="&#xEA0B;"
      horiz-adv-x="1001" d=" M333.6666666666667 792.4583333333333V208.5416666666666L792.4583333333334 500.5z" />
    <glyph glyph-name="close"
      unicode="&#xEA0C;"
      horiz-adv-x="1001" d=" M792.4583333333334 733.4410416666667L733.4410416666667 792.4583333333333L500.5 559.5172916666666L267.5589583333334 792.4583333333333L208.5416666666667 733.4410416666666L441.4827083333334 500.5L208.5416666666667 267.5589583333333L267.5589583333334 208.5416666666666L500.5 441.4827083333334L733.4410416666667 208.5416666666666L792.4583333333334 267.5589583333333L559.5172916666667 500.5z" />
    <glyph glyph-name="zoom"
      unicode="&#xEA0D;"
      horiz-adv-x="1001" d=" M500.8320234504439 750.5643612727813H375.6231997960831V625.3571732019202H250.4160117252219V500.1483495475594H375.6231997960831V374.9411614766982H500.8320234504439V500.1483495475594H626.0392115213051V625.3571732019202H500.8320234504439V750.5643612727813zM978.4403967883088 131.5352606312928L797.577573388844 312.3359318577681C847.1586515994733 383.3905858362719 876.4584944135265 469.5956497727177 876.4584944135265 562.7519435829901C876.4584944135265 804.7790475381283 680.2571689536514 1000.9803729980036 438.2300649985131 1000.9803729980036S0 804.7790475381282 0 562.75194358299S196.2013254598751 124.5235141679766 438.2284294150134 124.5235141679766C531.3847232252857 124.5235141679766 617.5897871617316 153.8217213985302 688.6444411402354 203.404435192659L869.4451123667106 22.6037639661838C899.5578401801265 -7.5073282637325 948.3276689748928 -7.5073282637325 978.4403967883088 22.6037639661838C1008.5531246017246 52.7164917795998 1008.4893368452354 101.4225328178767 978.4403967883088 131.5352606312928zM438.2284294150134 249.7323378223374C265.378329580696 249.7323378223374 125.2088236543609 389.9018437486724 125.2088236543609 562.75194358299C125.2088236543609 735.6020434173074 265.3799651641956 875.7715493436424 438.2284294150134 875.7715493436424C611.0785292493309 875.7715493436424 751.248035175666 735.6004078338077 751.248035175666 562.75194358299C751.2480351756659 389.9018437486724 611.0785292493309 249.7323378223374 438.2284294150134 249.7323378223374z" />
    <glyph glyph-name="checkmark"
      unicode="&#xEA0E;"
      horiz-adv-x="1201.2" d=" M376.2380621999984 45.4275821999984L0 425.046822199999L120.0310444666682 543.9789688666648L376.7452355333334 284.9824977999998L1052.722804466669 960.9599999999984L1172.246608866669 841.4361288666653L376.2380621999984 45.4275821999984" />
    <glyph glyph-name="ttquestion"
      unicode="&#xEA0F;"
      horiz-adv-x="1001" d=" M500.5 1001C225.225 1001 0 775.775 0 500.5C0 225.2249999999999 225.225 0 500.5 0C775.7750000000001 0 1001 225.2249999999999 1001 500.5C1001 775.775 775.7750000000001 1001 500.5 1001L500.5 1001zM544.9888887300001 189.0777746L456.01111127 189.0777746L456.01111127 278.05555635L544.9888887300001 278.05555635L544.9888887300001 189.0777746L544.9888887300001 189.0777746zM638.415555635 531.6422225399999L598.375555635 491.6022225399998C562.784444365 460.46 544.9888887300001 433.7666669050001 544.9888887300001 367.0333330949999L456.01111127 367.0333330949999L456.01111127 389.2777774600001C456.01111127 438.2155556350001 473.806666905 482.704444365 509.39777746 513.8466669049999L562.784444365 571.6822225399999C580.58 585.02888873 589.47777746 607.2733330950001 589.47777746 633.966666905C589.47777746 682.904444365 549.43777746 722.9444443650001 500.5 722.9444443650001C451.56222254 722.9444443650001 411.5222225400001 682.904444365 411.5222225400001 633.966666905L322.544444365 633.966666905C322.544444365 731.84222254 402.624444365 811.9222225399999 500.5 811.9222225399999C598.375555635 811.9222225399999 678.455555635 731.84222254 678.455555635 633.966666905C678.455555635 593.9266669049998 660.6600000000001 558.335555635 638.415555635 531.6422225399999L638.415555635 531.6422225399999z" />
    <glyph glyph-name="chevrondown"
      unicode="&#xEA10;"
      horiz-adv-x="1001" d=" M500.5 221.2748780645719C485.6370856353591 221.2748780645719 470.8335797220304 226.9132801709256 459.4919662897099 238.2224889934394L16.9854163069751 680.729038976174C-5.6654059478591 703.4068650725137 -5.6654059478591 740.0942841419198 16.9854163069751 762.7127017869475C39.6362385618094 785.3905278832873 76.3236576312155 785.3905278832873 98.9690791177486 762.7127017869475L500.5 361.2141855145028L902.0309208822514 762.7127017869475C924.6817431370856 785.3905278832873 961.3691622064918 785.3905278832873 984.0145836930247 762.7127017869475C1006.665405947859 740.0618795321133 1006.665405947859 703.4068650725138 984.0145836930247 680.729038976174L541.4810298687846 238.2224889934394C530.1718210462707 226.9132801709254 515.3359105231353 221.2748780645719 500.5 221.2748780645719z" />
    <glyph glyph-name="chevronup"
      unicode="&#xEA11;"
      horiz-adv-x="1001" d=" M943.0949264297238 221.2556047762677C928.2581353563586 221.2556047762677 913.4267453718442 226.8943415365856 902.0844587849978 238.236628123432L500.5297059886798 639.8183863640043L98.9749531923619 238.236628123432C76.3227865517744 215.5844614828445 39.6331899877518 215.5844614828445 16.9864244360152 238.236628123432C-5.6657422045723 260.8887947640194 -5.6657422045723 297.5459847949368 16.9864244360152 320.1711459912699L459.5192383439539 762.7633718765682C482.1714049845414 785.4155385171557 518.8880069928184 785.4155385171557 541.5077671003006 762.7633718765682L984.0135755639848 320.1711459912699C1006.6657422045724 297.5189793506824 1006.6657422045724 260.8887947640194 984.0135755639848 238.236628123432C972.7631074876032 226.9267480696907 957.9587229473434 221.2556047762677 943.0949264297238 221.2556047762677z" />
    <glyph glyph-name="search"
      unicode="&#xEA12;"
      horiz-adv-x="1001" d=" M785.208251953125 289.1716953125L575.8193847656249 498.5605625000001C613.2102539062499 550.9077792968751 635.644775390625 614.4732343750002 635.644775390625 681.776798828125C635.644775390625 857.5148613281251 493.55947265625 999.5982089843752 317.823365234375 999.5982089843752S0 857.51290625 0 681.776798828125S142.085302734375 363.955388671875 317.82141015625 363.955388671875C385.1249746093751 363.955388671875 448.6904296875 386.3899101562501 501.0376464843749 423.7807792968751L710.426513671875 214.391912109375C729.1209707031251 195.697455078125 762.7737304687499 195.697455078125 785.208251953125 214.391912109375L785.208251953125 214.391912109375C807.6427734375001 236.824478515625 807.6427734375001 266.73912890625 785.208251953125 289.1716953125zM317.82141015625 438.735171875C183.21428125 438.735171875 74.78173828125 547.1696699218751 74.78173828125 681.7748437500001C74.78173828125 816.38197265625 183.21428125 924.814515625 317.82141015625 924.814515625C452.4285390625 924.814515625 560.86108203125 816.38197265625 560.86108203125 681.7748437500001C560.863037109375 547.1696699218751 452.4285390625 438.735171875 317.82141015625 438.735171875z" />
    <glyph glyph-name="arrowleft"
      unicode="&#xEA13;"
      horiz-adv-x="1001.0000000000001" d=" M957.6671433285666 543.8328566714333H147.9363106368936L341.14990100099 737.0589594104058C358.0766417335827 753.9756902430976 358.0766417335827 781.4178308216917 341.14990100099 798.3320591794081C324.2231602683973 815.2587999120009 296.7810196898031 815.2587999120009 279.8793037069629 798.3320591794081L12.6950555494445 531.1428060719393C-4.2316851831482 514.2260752392476 -4.2316851831482 486.7814321856781 12.6950555494445 469.8697063029369L279.879303706963 202.6679408205917C288.3401715982841 194.2020679793201 299.4286382136179 189.9753877461224 310.5146023539765 189.9753877461224C321.6005664943351 189.9753877461224 332.689033109669 194.2020679793201 341.1499010009901 202.6679408205917C358.0766417335828 219.5846716532833 358.0766417335828 247.0268122318776 341.1499010009901 263.9385381146186L147.9363106368937 457.1746507534923H957.6671433285666C981.5958090419095 457.1746507534923 1000.9999999999998 476.5763392366075 1000.9999999999998 500.5050049499504C1001.0000000000002 524.4336706632935 981.5983115168848 543.8328566714333 957.6671433285666 543.8328566714333z" />
    <glyph glyph-name="arrowright"
      unicode="&#xEA14;"
      horiz-adv-x="1001" d=" M987.368211373646 533.4121495952863L689.4870067551482 831.2933542137841C671.3125297583621 849.4678312105702 641.8371845613617 849.4678312105702 623.6627075645756 831.2933542137841C605.4845070527317 813.1151537019402 605.4845070527317 783.6472555350554 623.6627075645756 765.4690550232116L842.0878243661468 547.0439382216402H46.5439382216403C20.8405137781217 547.0439382216402 0 526.2034244435187 0 500.5C0 474.8002990715391 20.8405137781217 453.9560617783598 46.5439382216403 453.9560617783598H842.0878243661468L623.6701545946911 235.5309449767886C605.4919540828473 217.3527444649446 605.4919540828473 187.8848462980598 623.6701545946911 169.706645786216C632.7555313355552 160.6249925604095 644.6707795202951 156.074857159862 656.5823041899774 156.074857159862S680.4053535293417 160.6249925604095 689.4944537852637 169.706645786216L987.368211373646 467.5878504047138C1005.5464118854898 485.7660509165576 1005.5464118854898 515.2339490834424 987.368211373646 533.4121495952863z" />
    <glyph glyph-name="download"
      unicode="&#xEA15;"
      horiz-adv-x="917.5833333333334" d=" M0 0L125.125 0L125.125 1001L0 1001L0 0z M166.8333333333334 0L917.5833333333334 0L917.5833333333334 1001L166.8333333333334 1001L166.8333333333334 0zM500.5 750.75L583.9166666666667 750.75L583.9166666666667 434.3505833333328L679.5538750000003 529.9877916666711L738.5294583333331 471.0122083333288L542.2083333333334 274.6910833333339L345.8872083333336 471.0122083333288L404.8627916666664 529.9877916666711L500.5 434.3505833333328L500.5 750.75z" />
    <glyph glyph-name="fb"
      unicode="&#xEA16;"
      horiz-adv-x="1001" d=" M941.8476217149998 1001L55.0213864200002 1001C24.625345745 1001 0 976.374654255002 0 945.9823523150018L0 59.1486395499989C0 28.7638100749974 24.625345745 4.1309918650007 55.0213864200002 4.1309918650007L532.4573003750002 4.1309918650007L532.4573003750002 390.1696298500023L402.5476655199999 390.1696298500023L402.5476655199999 540.6184383600012L532.4573003750002 540.6184383600012L532.4573003750002 651.5688279099984C532.4573003750002 780.3280535050025 611.0955600749996 850.4391395500018 725.9565763449999 850.4391395500018C780.97795776 850.4391395500018 828.264001565 846.341766270001 842.050163955 844.5115779099992L842.050163955 709.9517775349984L762.3810244050001 709.9144302249995C699.91563642 709.9144302249995 687.8214643299999 680.2317922399982 687.8214643299999 636.6733523149987L687.8214643299999 540.6184383600012L836.7986476850001 540.6184383600012L817.4024058199998 390.1696298500023L687.8214643299999 390.1696298500023L687.8214643299999 4.1309918650007L941.8476217149998 4.1309918650007C972.232456195 4.1309918650007 996.8652744049998 28.7638100749974 996.8652744049998 59.1486395499989L996.8652744049998 945.9823523150018C996.8652744049998 976.374654255002 972.232456195 1001 941.8476217149998 1001" />
    <glyph glyph-name="linkedin"
      unicode="&#xEA17;"
      horiz-adv-x="1001" d=" M853.01472256 148.0367888999981L704.5567378849998 148.0367888999981L704.5567378849998 380.3521721999975C704.5567378849998 435.7408555499983 703.6113234149999 507.0064999999998 627.42198519 507.0064999999998C550.1481986000002 507.0064999999998 538.3583154949997 446.6406444500016 538.3583154949997 384.3005666500034L538.3583154949997 148.0367888999981L390.0671674899997 148.0367888999981L390.0671674899997 625.7362110999981L532.3799531050003 625.7362110999981L532.3799531050003 560.4209611000006L534.4376237199999 560.4209611000006C554.235727045 597.9862888999985 602.6743522800001 637.5813944499987 674.8873881749998 637.5813944499987C825.2362017899999 637.5813944499987 853.01472256 538.6770389000013 853.01472256 410.0207111000008L853.01472256 148.0367888999981L853.01472256 148.0367888999981zM222.6730756249998 690.9958555499993C174.9852204099999 690.9958555499993 136.5290726800002 729.5621833500022 136.5290726800002 777.1096833499987C136.5290726800002 824.6293555499973 174.9852204099999 863.1956833500001 222.6730756249998 863.1956833500001C270.1662813849998 863.1956833500001 308.7058524550001 824.6293555499973 308.7058524550001 777.1096833499987C308.7058524550001 729.5621833500022 270.1662813849998 690.9958555499993 222.6730756249998 690.9958555499993L222.6730756249998 690.9958555499993zM148.3189557849999 625.7362110999981L296.9437771300002 625.7362110999981L296.9437771300002 148.0367888999981L148.3189557849999 148.0367888999981L148.3189557849999 625.7362110999981zM926.9517507249998 1001L73.8258020500002 1001C33.0895314750001 1001 0 968.689922200003 0 928.8167888999992L0 72.238816649997C0 32.365683349999 33.0895314750001 0 73.8258020500002 0L926.9517507249998 0C967.771439635 0 1001 32.365683349999 1001 72.238816649997L1001 928.8167888999992C1001 968.689922200003 967.771439635 1001 926.9517507249998 1001L926.9517507249998 1001z" />
    <glyph glyph-name="twitter"
      unicode="&#xEA18;"
      horiz-adv-x="1201.1999999999998" d=" M1201.1999999999998 885.440706150003C1157.0035376899998 865.8402752999975 1109.5073889899998 852.5931914499972 1059.65620761 846.6353395500007C1110.539915485 877.1365603000013 1149.6132948299999 925.4323578499979 1168.0142073599998 982.9769449500006C1120.3994301500002 954.7384847 1067.657175585 934.2285952999976 1011.5229674549998 923.174001749998C966.5663907899998 971.0699498499968 902.51908747 1001 831.6395437350001 1001C695.53518034 1001 585.1912116050004 890.6604206500026 585.1912116050004 754.5648610500016C585.1912116050004 735.2500655499975 587.3748931050001 716.4405247999982 591.5752943100003 698.4042565499981C386.7574911199997 708.6812232499977 205.1692993349997 806.7930370499988 83.6213428050003 955.8896347000012C62.4084460999999 919.4920234500024 50.2554051999999 877.158532249997 50.2554051999999 831.9954142500005C50.2554051999999 746.4979521999983 93.7664477750003 671.0665461499991 159.8919822500004 626.8744481999977C119.4916973249998 628.1530255000016 81.4947783650002 639.2383997999973 48.2650518350002 657.6964394000022C48.2474742750003 656.6683122999976 48.2474742750003 655.6357807999984 48.2474742750003 654.598844899999C48.2474742750003 535.1950604000014 133.1957226600002 435.5893541999996 245.9342635749998 412.9528903500006C225.2530079800001 407.3201132000026 203.48210883 404.3104064999995 181.0038230000002 404.3104064999995C165.1249049449997 404.3104064999995 149.68536583 405.8525971499977 134.6412567499999 408.7305221999979C165.9992584249996 310.8207602499987 257.0108440899997 239.5721327999998 364.8503858999997 237.5817944500006C280.508473245 171.4870157000024 174.2462772050002 132.0885065500011 58.7880192900001 132.0885065500011C38.8976337749999 132.0885065500011 19.2796553949999 133.2528196999975 0 135.5287933999981C109.0609970450002 65.6070915500004 238.6011427799999 24.8113365499989 377.7723249299998 24.8113365499989C831.0639637300001 24.8113365499989 1078.940257395 400.3296797500012 1078.940257395 725.9880628000016C1078.940257395 736.6735876499997 1078.70299537 747.3020054499996 1078.2284713200002 757.8689118000013C1126.3748946449998 792.6144726500003 1168.15920221 836.0200849000016 1201.1999999999998 885.440706150003" />
    <glyph glyph-name="info"
      unicode="&#xEA19;"
      horiz-adv-x="1001" d=" M500.4978617416232 0C366.8096715071198 0 241.1228441186147 52.0623149584097 146.5925795385122 146.594717796889C52.0601767000329 241.1271206353681 0 366.8118097654965 0 500.5021382583768S52.0601767000329 759.8728793646318 146.5925795385122 854.405282203111S366.8096715071197 1000.9978617416232 500.4978617416232 1000.9978617416232S759.8728793646319 948.9376850415902 854.405282203111 854.405282203111C948.9376850415902 759.8750176230086 1001 634.1881902345035 1001 500.4999999999999S948.9376850415904 241.1271206353681 854.405282203111 146.5925795385121C759.8728793646319 52.0623149584096 634.1860519761267 0 500.4978617416232 0zM500.4978617416232 958.2326942055548C378.2322477560037 958.2326942055548 263.2858921941821 910.620094929273 176.8318295032662 824.166032238357S42.7651675360684 622.7634757272428 42.7651675360684 500.5021382583768C42.7651675360684 378.2365242727572 90.3777668123502 263.2901687109357 176.8318295032661 176.833967761643C263.2858921941821 90.379905070727 378.2322477560036 42.7673057944452 500.4978617416232 42.7673057944452S737.7098312890644 90.3820433291037 824.166032238357 176.833967761643C910.620094929273 263.2901687109357 958.2326942055548 378.2343860143804 958.2326942055548 500.5021382583768C958.2326942055548 622.7677522439965 910.6179566708964 737.714107805818 824.166032238357 824.1681704967339C737.7098312890644 910.620094929273 622.7656139856197 958.2326942055548 500.4978617416232 958.2326942055548z M442.0699515954697 605.6723765214531H535.5567460876921V231.7273368109403H442.0699515954697V605.6723765214531z M442.0699515954697 745.8993608722215H535.5567460876921V652.412566379999H442.0699515954697V745.8993608722215z" />
    <glyph glyph-name="fullscreen"
      unicode="&#xEA1A;"
      horiz-adv-x="800.8" d=" M459.05234375 893.86171875L459.05234375 835.209375L593.56171875 835.209375L165.790625 407.4382812500001L165.790625 541.94765625L107.13828125 541.94765625L107.13828125 307.33828125L341.74765625 307.33828125L341.74765625 365.990625L207.23828125 365.990625L635.009375 793.76171875L635.009375 659.25234375L693.66171875 659.25234375L693.66171875 893.86171875z" />
    <glyph glyph-name="bcburger"
      unicode="&#xEA1B;"
      horiz-adv-x="1422.4736842105262" d=" M766.1076528368426 1001H1422.4736842105267V842.9473684210526H766.1076528368425V1001z M358.0879934210526 579.5263157894738H1422.4736842105262V421.4736842105264H358.0879934210526V579.5263157894738z M0 158.0526315789474H1422.4736842105262V0H0V158.0526315789474z" />
    <glyph glyph-name="linkedinnobg"
      unicode="&#xEA1C;"
      horiz-adv-x="1001" d=" M235.235 588.0875000000001H347.8475V250.25H235.235V588.0875000000001zM635.6349999999999 598.0975C585.5849999999999 598.0975 558.0574999999999 580.5799999999999 525.525 540.54V585.585H412.9125V250.25H525.525V432.9325C525.525 470.47 545.545 508.0075000000001 590.59 508.0075000000001C635.635 508.0075000000001 663.1624999999999 470.47 663.1624999999999 432.9325V250.25H775.775V440.4400000000001C775.775 573.0725 685.685 598.0975 635.6349999999999 598.0975zM290.29 750.75C255.255 750.75 225.225 723.2225000000001 225.225 690.69C225.225 658.1575 255.255 630.63 290.29 630.63C327.8275 630.63 355.355 658.1575 355.355 690.69C357.8575 723.2225000000001 327.8275 750.75 290.29 750.75z" />
    <glyph glyph-name="fbnobg"
      unicode="&#xEA1D;"
      horiz-adv-x="1001" d=" M542.2083333333334 583.9166666666666H667.3333333333334V458.7916666666666H542.2083333333334V166.8333333333333H417.0833333333334V458.7916666666666H291.9583333333334V583.9166666666666H417.0833333333334V636.260625C417.0833333333334 685.8518333333334 432.6822500000001 748.49775 463.71325 782.7402916666667C494.74425 817.06625 533.4912916666667 834.1666666666666 579.9126666666667 834.1666666666666H667.3333333333334V709.0416666666666H579.7458333333334C558.9750833333334 709.0416666666666 542.2083333333334 692.2749166666666 542.2083333333334 671.545875V583.9166666666666z" />
    <glyph glyph-name="twitternobg"
      unicode="&#xEA1E;"
      horiz-adv-x="1231.9494584837546" d=" M463.5415162454873 166.5595667870036C773.3357400722022 166.5595667870036 942.8519855595669 423.4620938628159 942.8519855595669 645.8700361010831C942.8519855595669 653.0974729241877 942.8519855595669 660.3249097472924 942.523465703971 667.552346570397C975.3754512635378 691.2057761732851 1003.956678700361 721.101083032491 1026.6245487364622 754.9386281588447C996.4007220216608 741.4693140794224 963.8772563176894 732.5992779783394 929.71119133574 728.3285198555957C964.534296028881 749.0252707581227 991.14440433213 782.2057761732852 1003.956678700361 821.6281588447653C971.43321299639 802.2454873646209 935.2960288808666 788.4476534296028 896.8592057761733 780.8916967509025C865.9783393501806 813.7436823104694 822.2851985559568 834.1119133574007 773.9927797833935 834.1119133574007C681.0216606498194 834.1119133574007 605.4620938628159 758.552346570397 605.4620938628159 665.5812274368232C605.4620938628159 652.4404332129964 607.1046931407943 639.6281588447653 609.7328519855597 627.14440433213C469.7833935018052 634.043321299639 345.6028880866427 701.389891696751 262.4873646209387 803.231046931408C248.0324909747293 778.2635379061372 239.8194945848376 749.3537906137184 239.8194945848376 718.4729241877257C239.8194945848376 659.9963898916967 269.7148014440433 608.4187725631768 314.7220216606499 578.1949458483755C287.1263537906137 579.1805054151625 261.173285198556 586.7364620938629 238.5054151624549 599.2202166064983C238.5054151624549 598.5631768953069 238.5054151624549 597.9061371841156 238.5054151624549 596.9205776173285C238.5054151624549 515.447653429603 296.6534296028881 447.115523465704 373.5270758122744 431.6750902527076C359.4007220216606 427.7328519855597 344.6173285198556 425.7617328519856 329.1768953068592 425.7617328519856C318.3357400722022 425.7617328519856 307.8231046931408 426.7472924187727 297.6389891696751 428.7184115523467C318.9927797833935 361.7003610108303 381.4115523465704 313.0794223826715 455 311.7653429602889C397.1805054151625 266.4296028880866 324.5776173285199 239.4909747292419 245.7328519855596 239.4909747292419C232.2635379061372 239.4909747292419 218.7942238267148 240.1480144404333 205.6534296028881 241.7906137184116C279.898916967509 194.4837545126354 368.5992779783394 166.5595667870036 463.5415162454873 166.5595667870036" />
    <glyph glyph-name="newwindow"
      unicode="&#xEA1F;"
      horiz-adv-x="1001" d=" M55.6111111111111 945.3739616959384L55.6111111111111 33.1732011722232L967.811872805562 33.1732011722232L964.6405268499942 418.9526624616646L890.0543207111059 418.9526624616646L893.225666666661 107.8091625722227L130.2470758477737 107.8091625722227L130.2470758477737 870.7877539472217L439.6389041488846 869.4664256055526L439.6389041488846 944.0526330068174z M602.9315692400047 945.3739616959384L603.7276862283355 870.7877539472217L843.5081599388878 870.7877539472217L756.5323821611057 779.3835755261088L511.7264196488924 522.0387689183353L484.6584431577785 493.6273447661117L538.7446392105602 442.1782859938869L583.5759752044434 489.248701608332L809.3248885944403 726.5910696488857L893.2157178388939 814.7112657016655L893.2157178388939 582.3446284211101L967.801923977782 580.5036081288903L967.801923977782 945.3739616959384z" />
  </font>
</defs>
</svg>
